<?xml version="1.0" encoding="UTF-8" standalone="no"?>
<svg
   xmlns:dc="http://purl.org/dc/elements/1.1/"
   xmlns:cc="http://creativecommons.org/ns#"
   xmlns:rdf="http://www.w3.org/1999/02/22-rdf-syntax-ns#"
   xmlns:svg="http://www.w3.org/2000/svg"
   xmlns="http://www.w3.org/2000/svg"
   xmlns:xlink="http://www.w3.org/1999/xlink"
   xmlns:sodipodi="http://sodipodi.sourceforge.net/DTD/sodipodi-0.dtd"
   xmlns:inkscape="http://www.inkscape.org/namespaces/inkscape"
   id="svg8"
   version="1.1"
   viewBox="0 0 210 297"
   height="297mm"
   width="210mm"
   sodipodi:docname="logos.svg"
   inkscape:version="0.92.4 (5da689c313, 2019-01-14)">
  <sodipodi:namedview
     pagecolor="#ffffff"
     bordercolor="#666666"
     borderopacity="1"
     objecttolerance="10"
     gridtolerance="10"
     guidetolerance="10"
     inkscape:pageopacity="0"
     inkscape:pageshadow="2"
     inkscape:window-width="1920"
     inkscape:window-height="1020"
     id="namedview69"
     showgrid="false"
     inkscape:zoom="0.43854167"
     inkscape:cx="738.61296"
     inkscape:cy="585.41022"
     inkscape:window-x="0"
     inkscape:window-y="31"
     inkscape:window-maximized="1"
     inkscape:current-layer="svg8" />
  <defs
     id="defs2" />
  <metadata
     id="metadata5">
    <rdf:RDF>
      <cc:Work
         rdf:about="">
        <dc:format>image/svg+xml</dc:format>
        <dc:type
           rdf:resource="http://purl.org/dc/dcmitype/StillImage" />
        <dc:title />
      </cc:Work>
    </rdf:RDF>
  </metadata>
  <g
     id="g1085"
     transform="matrix(0.26458333,0,0,0.26458333,-219.79316,-33.351189)"
     inkscape:export-xdpi="96"
     inkscape:export-ydpi="96">
    <image
       sodipodi:absref="/home/dummy/devel/qqmusic/art/r/ab/logo_s.orig.png"
       xlink:href="logo_s.orig.png"
       width="450"
       height="960"
       preserveAspectRatio="none"
       id="image10"
       x="0"
       y="0" />
    <g
       transform="matrix(2.0031252,0,0,2.0031252,-2191.8822,319.03585)"
       id="g1608">
      <path
         inkscape:connector-curvature="0"
         style="fill:#ffffff;stroke:none;stroke-width:1px;stroke-linecap:butt;stroke-linejoin:miter;stroke-opacity:1"
         d="m 1205.515,-48.986316 4.22,28.83653 22.8582,-3.16499 11.2533,14.418266 9.4949,-3.86832 14.4183,7.38496 -12.3083,-21.099886 18.9899,-9.84662 -16.5282,-13.01161 -6.33,-17.231581 6.33,-36.573153 -12.3083,18.286575 -14.1574,-4.875309 -15.0308,-10.949616 -7.7366,7.0333 -9.495,-0.703329 15.4733,20.044903 -9.495,9.494954 9.8467,14.066596 z"
         id="path2079" />
      <path
         inkscape:connector-curvature="0"
         style="opacity:1;vector-effect:none;fill:#000000;fill-opacity:1;stroke:none;stroke-width:2.9596982;stroke-linecap:butt;stroke-linejoin:miter;stroke-miterlimit:4;stroke-dasharray:none;stroke-dashoffset:0;stroke-opacity:1"
         d="m 1126.2327,-118.71202 6.437,21.884167 -21.3754,7.95343 37.2236,18.636308 21.4439,-4.470759 64.4591,32.273528 -20.9059,5.44903 22.8767,2.35985 14.2135,-14.29338 -21.5942,-19.019328 8.961,20.406968 -65.2514,-32.674632 -9.2643,-19.859112 z"
         id="rect126" />
      <path
         inkscape:connector-curvature="0"
         id="path2041"
         d="m 1258.8029,-105.93933 -13.1981,21.083185 -14.1574,-4.875309 -15.0308,-10.949616 -7.7366,7.0333 -9.495,-0.703329 15.4733,20.044903 -9.495,9.494954 9.8467,14.066596 -9.495,1.75833 4.22,28.83653 22.8582,-3.16499 11.2533,14.418266 9.4949,-3.86832 14.4183,7.38496 -12.3083,-21.099886 18.9899,-9.84662 -16.5282,-13.01161 -6.33,-17.231581 7.9825,-43.691803"
         style="fill:none;stroke:#000000;stroke-width:1px;stroke-linecap:butt;stroke-linejoin:miter;stroke-opacity:1" />
      <path
         inkscape:connector-curvature="0"
         id="path2043"
         d="M 1205.515,-48.986316 1120.7637,35.41327"
         style="fill:none;stroke:#000000;stroke-width:1px;stroke-linecap:butt;stroke-linejoin:miter;stroke-opacity:1" />
      <path
         inkscape:connector-curvature="0"
         id="path2045"
         d="m 1205.1633,-64.811242 -8.0883,1.758325 -56.618,-18.989908"
         style="fill:none;stroke:#000000;stroke-width:1px;stroke-linecap:butt;stroke-linejoin:miter;stroke-opacity:1" />
      <path
         inkscape:connector-curvature="0"
         id="path2047"
         d="m 1164.3702,-73.954531 17.2316,46.771445"
         style="fill:none;stroke:#000000;stroke-width:1px;stroke-linecap:butt;stroke-linejoin:miter;stroke-opacity:1" />
      <path
         inkscape:connector-curvature="0"
         id="path2049"
         d="m 1253.0416,-70.712123 47.0713,27.352447"
         style="fill:none;stroke:#000000;stroke-width:1px;stroke-linecap:butt;stroke-linejoin:miter;stroke-opacity:1" />
      <path
         inkscape:connector-curvature="0"
         id="path2051"
         d="m 1274.4413,-36.326376 30.2432,21.803226"
         style="fill:none;stroke:#000000;stroke-width:1px;stroke-linecap:butt;stroke-linejoin:miter;stroke-opacity:1" />
      <path
         inkscape:connector-curvature="0"
         id="path2053"
         d="m 1267.7597,-5.37987 31.6499,21.0999"
         style="fill:none;stroke:#000000;stroke-width:1px;stroke-linecap:butt;stroke-linejoin:miter;stroke-opacity:1" />
      <path
         inkscape:connector-curvature="0"
         id="path2055"
         d="m 1253.0416,-70.712123 c 6.1319,-3.052141 16.2652,-4.503663 27.0264,-5.704063"
         style="fill:none;stroke:#000000;stroke-width:1px;stroke-linecap:butt;stroke-linejoin:miter;stroke-opacity:1" />
      <path
         inkscape:connector-curvature="0"
         id="path2057"
         d="m 1231.4474,-89.731454 -1.3158,-10.597946 0.3516,-5.27498"
         style="fill:none;stroke:#000000;stroke-width:1px;stroke-linecap:butt;stroke-linejoin:miter;stroke-opacity:1" />
      <path
         inkscape:connector-curvature="0"
         id="path2059"
         d="m 1214.3066,-109.12103 2.11,8.43996 -8.7916,-1.05499 -3.8683,-4.92331 -13.3633,-1.75833"
         style="fill:none;stroke:#000000;stroke-width:1px;stroke-linecap:butt;stroke-linejoin:miter;stroke-opacity:1" />
      <path
         inkscape:connector-curvature="0"
         id="path2061"
         d="m 1199.185,-94.351099 -2.8133,-5.62664 -5.9783,-1.054991 -7.7366,-5.27498"
         style="fill:none;stroke:#000000;stroke-width:1px;stroke-linecap:butt;stroke-linejoin:miter;stroke-opacity:1" />
      <path
         inkscape:connector-curvature="0"
         id="path2063"
         d="M 1181.6018,-27.183086 1199.5367,1.30177"
         style="fill:none;stroke:#000000;stroke-width:1px;stroke-linecap:butt;stroke-linejoin:miter;stroke-opacity:1" />
      <path
         inkscape:connector-curvature="0"
         id="path2065"
         d="m 1209.735,-20.149786 -37.2765,80.531266 -2.4617,17.58325"
         style="fill:none;stroke:#000000;stroke-width:1px;stroke-linecap:butt;stroke-linejoin:miter;stroke-opacity:1" />
      <path
         inkscape:connector-curvature="0"
         id="path2067"
         d="M 1234.141,-20.942616 1215.8544,15.27887"
         style="fill:none;stroke:#000000;stroke-width:1px;stroke-linecap:butt;stroke-linejoin:miter;stroke-opacity:1" />
      <path
         inkscape:connector-curvature="0"
         id="path2069"
         d="m 1234.141,-20.942616 8.2314,22.820856"
         style="fill:none;stroke:#000000;stroke-width:1px;stroke-linecap:butt;stroke-linejoin:miter;stroke-opacity:1" />
      <path
         inkscape:connector-curvature="0"
         id="path2071"
         d="m 1168.1432,-11.93041 20.0449,-5.27498"
         style="fill:none;stroke:#000000;stroke-width:1px;stroke-linecap:butt;stroke-linejoin:miter;stroke-opacity:1" />
      <path
         inkscape:connector-curvature="0"
         style="opacity:1;vector-effect:none;fill:#ff0000;fill-opacity:1;stroke:none;stroke-width:2.91260195px;stroke-linecap:butt;stroke-linejoin:miter;stroke-miterlimit:4;stroke-dasharray:none;stroke-dashoffset:0;stroke-opacity:1"
         d="m 1251.1467,-48.643956 c -26.5998,11.27106 -38.5028,29.60018 -41.6586,44.027236 -3.156,14.42706 4.922,22.4721 17.3129,22.4721 12.391,0 16.2304,-8.56586 19.1609,-16.68112 2.9305,-8.11517 -7.6643,-16.00478 -7.6643,-24.570836 0,-8.56626 14.2015,-25.47288 14.2015,-25.47288 z"
         id="path4679" />
      <path
         inkscape:connector-curvature="0"
         id="path2073"
         d="m 1253.3414,-12.76483 -2.9563,11.77505999"
         style="fill:none;stroke:#000000;stroke-width:1px;stroke-linecap:butt;stroke-linejoin:miter;stroke-opacity:1" />
      <path
         inkscape:connector-curvature="0"
         id="path2075"
         d="m 1251.8659,-7.17438 2.7874,3.74561"
         style="fill:none;stroke:#000000;stroke-width:1px;stroke-linecap:butt;stroke-linejoin:miter;stroke-opacity:1" />
      <path
         inkscape:connector-curvature="0"
         id="path2077"
         d="m 1164.3702,-73.954531 34.8148,-20.396568"
         style="fill:none;stroke:#000000;stroke-width:1px;stroke-linecap:butt;stroke-linejoin:miter;stroke-opacity:1" />
    </g>
    <g
       transform="matrix(2.0108201,0,0,2.0108201,-54.369467,-935.40999)"
       id="g1642">
      <path
         inkscape:connector-curvature="0"
         id="path2081"
         d="m 57.344453,915.75649 67.595247,-11.84659 20.90575,8.3623 -55.051797,11.84659 z"
         style="fill:#ffd42a;stroke:#000000;stroke-width:1px;stroke-linecap:butt;stroke-linejoin:miter;stroke-opacity:1" />
      <path
         inkscape:connector-curvature="0"
         style="opacity:1;vector-effect:none;fill:#ffd42a;fill-opacity:1;stroke:#000000;stroke-width:1px;stroke-linecap:butt;stroke-linejoin:miter;stroke-miterlimit:4;stroke-dasharray:none;stroke-dashoffset:0;stroke-opacity:1"
         d="m 194.60252,921.93852 -30.23478,-5.29888 -9.35096,3.74039 24.6242,5.29888 z"
         id="path2083" />
      <path
         inkscape:connector-curvature="0"
         id="path2099"
         d="m 145.59804,915.83979 66.02893,-2.95652 -79.33326,14.53622 z"
         style="opacity:1;vector-effect:none;fill:#ffd42a;fill-opacity:1;stroke:#000000;stroke-width:1px;stroke-linecap:butt;stroke-linejoin:miter;stroke-miterlimit:4;stroke-dasharray:none;stroke-dashoffset:0;stroke-opacity:1" />
      <path
         inkscape:connector-curvature="0"
         id="path2106"
         d="m 157.25902,922.38308 7.36941,-6.90734 39.66956,-1.77206 z"
         style="fill:#11be73;fill-opacity:1;stroke:none;stroke-width:1px;stroke-linecap:butt;stroke-linejoin:miter;stroke-opacity:1" />
      <path
         inkscape:connector-curvature="0"
         id="path2108"
         d="m 125.84526,922.35487 29.54725,6.0332 -14.07748,-8.19897 z"
         style="opacity:1;vector-effect:none;fill:#11be73;fill-opacity:1;stroke:#000000;stroke-width:1px;stroke-linecap:butt;stroke-linejoin:miter;stroke-miterlimit:4;stroke-dasharray:none;stroke-dashoffset:0;stroke-opacity:1" />
    </g>
  </g>
  <g
     id="layer1-5"
     transform="translate(223.00595,-37.04167)"
     inkscape:export-xdpi="96"
     inkscape:export-ydpi="96">
    <image
       sodipodi:absref="/home/dummy/devel/qqmusic/art/r/ab/logo_s_white.orig.png"
       xlink:href="logo_s_white.orig.png"
       width="119.0625"
       height="254"
       preserveAspectRatio="none"
       id="image893"
       x="41.010422"
       y="17.297621" />
    <g
       transform="matrix(0.52834878,0,0,0.52834878,40.279667,17.254613)"
       id="g1531">
      <g
         id="g1493">
        <path
           inkscape:connector-curvature="0"
           style="fill:#000000;stroke:none;stroke-width:1px;stroke-linecap:butt;stroke-linejoin:miter;stroke-opacity:1"
           d="m 112.53279,110.75178 4.21998,28.83653 22.85822,-3.16499 11.25328,14.41827 9.49496,-3.86832 14.41826,7.38496 -12.30827,-21.09989 18.98991,-9.84662 -16.52826,-13.01161 -6.32997,-17.231581 6.32997,-36.573157 -12.30827,18.286579 -14.15738,-4.875309 -15.03081,-10.949615 -7.73663,7.033299 -9.49496,-0.703329 15.47326,20.044903 -9.49495,9.494954 9.84662,14.066596 z"
           id="path2079-3" />
        <path
           inkscape:connector-curvature="0"
           id="path2041-6"
           d="m 165.8207,53.798762 -13.1981,21.083189 -14.15738,-4.875309 -15.03081,-10.949615 -7.73663,7.033299 -9.49496,-0.703329 15.47326,20.044903 -9.49495,9.494954 9.84662,14.066596 -9.49496,1.75833 4.21998,28.83653 22.85822,-3.16499 11.25328,14.41827 9.49496,-3.86832 14.41826,7.38496 -12.30827,-21.09989 18.98991,-9.84662 -16.52826,-13.01161 -6.32997,-17.231581 7.98251,-43.691801"
           style="fill:none;stroke:#000000;stroke-width:1px;stroke-linecap:butt;stroke-linejoin:miter;stroke-opacity:1" />
        <path
           inkscape:connector-curvature="0"
           id="path2043-2"
           d="M 112.53279,110.75178 27.781533,195.15137"
           style="fill:none;stroke:#000000;stroke-width:1px;stroke-linecap:butt;stroke-linejoin:miter;stroke-opacity:1" />
        <path
           inkscape:connector-curvature="0"
           id="path2045-9"
           d="m 112.18113,94.926854 -8.0883,1.758325 -56.618059,-18.989908"
           style="fill:none;stroke:#000000;stroke-width:1px;stroke-linecap:butt;stroke-linejoin:miter;stroke-opacity:1" />
        <path
           inkscape:connector-curvature="0"
           id="path2047-1"
           d="M 71.38799,85.783565 88.619573,132.55501"
           style="fill:none;stroke:#000000;stroke-width:1px;stroke-linecap:butt;stroke-linejoin:miter;stroke-opacity:1" />
        <path
           inkscape:connector-curvature="0"
           id="path2049-2"
           d="m 160.05943,89.025973 47.07124,27.352447"
           style="fill:none;stroke:#000000;stroke-width:1px;stroke-linecap:butt;stroke-linejoin:miter;stroke-opacity:1" />
        <path
           inkscape:connector-curvature="0"
           id="path2051-7"
           d="m 181.45913,123.41172 30.24318,21.80323"
           style="fill:none;stroke:#000000;stroke-width:1px;stroke-linecap:butt;stroke-linejoin:miter;stroke-opacity:1" />
        <path
           inkscape:connector-curvature="0"
           id="path2053-0"
           d="m 174.77749,154.35823 31.64985,21.0999"
           style="fill:none;stroke:#000000;stroke-width:1px;stroke-linecap:butt;stroke-linejoin:miter;stroke-opacity:1" />
        <path
           inkscape:connector-curvature="0"
           id="path2055-9"
           d="m 160.05943,89.025973 c 6.13181,-3.052141 16.26517,-4.503663 27.02634,-5.704063"
           style="fill:none;stroke:#000000;stroke-width:1px;stroke-linecap:butt;stroke-linejoin:miter;stroke-opacity:1" />
        <path
           inkscape:connector-curvature="0"
           id="path2057-3"
           d="m 138.46522,70.006642 -1.31588,-10.59795 0.35166,-5.274975"
           style="fill:none;stroke:#000000;stroke-width:1px;stroke-linecap:butt;stroke-linejoin:miter;stroke-opacity:1" />
        <path
           inkscape:connector-curvature="0"
           id="path2059-6"
           d="m 121.32442,50.617068 2.10999,8.439959 -8.79163,-1.054995 -3.86831,-4.92331 -13.363272,-1.758324"
           style="fill:none;stroke:#000000;stroke-width:1px;stroke-linecap:butt;stroke-linejoin:miter;stroke-opacity:1" />
        <path
           inkscape:connector-curvature="0"
           id="path2061-0"
           d="m 106.20282,65.386997 -2.81332,-5.62664 -5.978302,-1.054995 -7.73663,-5.274975"
           style="fill:none;stroke:#000000;stroke-width:1px;stroke-linecap:butt;stroke-linejoin:miter;stroke-opacity:1" />
        <path
           inkscape:connector-curvature="0"
           id="path2063-6"
           d="m 88.619573,132.55501 17.934917,28.48486"
           style="fill:none;stroke:#000000;stroke-width:1px;stroke-linecap:butt;stroke-linejoin:miter;stroke-opacity:1" />
        <path
           inkscape:connector-curvature="0"
           id="path2065-2"
           d="m 116.75277,139.58831 -37.276486,80.53127 -2.461655,17.58325"
           style="fill:none;stroke:#000000;stroke-width:1px;stroke-linecap:butt;stroke-linejoin:miter;stroke-opacity:1" />
        <path
           inkscape:connector-curvature="0"
           id="path2067-6"
           d="m 141.15874,138.79548 -18.28658,36.22149"
           style="fill:none;stroke:#000000;stroke-width:1px;stroke-linecap:butt;stroke-linejoin:miter;stroke-opacity:1" />
        <path
           inkscape:connector-curvature="0"
           id="path2069-1"
           d="m 141.15874,138.79548 8.23149,22.82086"
           style="fill:none;stroke:#000000;stroke-width:1px;stroke-linecap:butt;stroke-linejoin:miter;stroke-opacity:1" />
        <path
           inkscape:connector-curvature="0"
           id="path2071-8"
           d="m 75.161021,147.80769 20.044904,-5.27498"
           style="fill:none;stroke:#000000;stroke-width:1px;stroke-linecap:butt;stroke-linejoin:miter;stroke-opacity:1" />
        <path
           inkscape:connector-curvature="0"
           style="opacity:1;vector-effect:none;fill:#ff0000;fill-opacity:1;stroke:none;stroke-width:2.91260195px;stroke-linecap:butt;stroke-linejoin:miter;stroke-miterlimit:4;stroke-dasharray:none;stroke-dashoffset:0;stroke-opacity:1"
           d="m 158.16448,111.09414 c -26.5998,11.27106 -38.50283,29.60018 -41.65857,44.02724 -3.156,14.42706 4.922,22.4721 17.31288,22.4721 12.39103,0 16.23043,-8.56586 19.16093,-16.68112 2.9305,-8.11517 -7.66437,-16.00478 -7.66437,-24.57084 0,-8.56626 14.20156,-25.47288 14.20156,-25.47288 z"
           id="path4679-7" />
        <path
           inkscape:connector-curvature="0"
           id="path2073-9"
           d="m 160.35923,146.97327 -2.95637,11.77506"
           style="fill:none;stroke:#000000;stroke-width:1px;stroke-linecap:butt;stroke-linejoin:miter;stroke-opacity:1" />
        <path
           inkscape:connector-curvature="0"
           id="path2075-2"
           d="m 158.88369,152.56372 2.78743,3.74561"
           style="fill:none;stroke:#000000;stroke-width:1px;stroke-linecap:butt;stroke-linejoin:miter;stroke-opacity:1" />
        <path
           inkscape:connector-curvature="0"
           id="path2077-0"
           d="M 71.38799,85.783565 106.20282,65.386997"
           style="fill:none;stroke:#000000;stroke-width:1px;stroke-linecap:butt;stroke-linejoin:miter;stroke-opacity:1" />
        <path
           inkscape:connector-curvature="0"
           style="opacity:1;vector-effect:none;fill:#000000;fill-opacity:1;stroke:#ffffff;stroke-width:2.9596982;stroke-linecap:butt;stroke-linejoin:miter;stroke-miterlimit:4;stroke-dasharray:none;stroke-dashoffset:0;stroke-opacity:1"
           d="m 33.250462,41.026076 6.437064,21.884167 -21.375472,7.95343 37.223629,18.636308 21.443943,-4.470759 64.459054,32.273528 -20.90589,5.44903 22.87671,2.35985 14.21348,-14.29338 -21.59421,-19.019328 8.96106,20.406968 L 79.738425,79.531258 70.474091,59.672151 Z"
           id="rect126-5" />
      </g>
      <g
         id="g1500">
        <path
           inkscape:connector-curvature="0"
           id="path2081-2"
           d="m 29.268048,457.00368 67.595253,-11.84659 20.905749,8.3623 -55.051804,11.84659 z"
           style="fill:#ffd42a;stroke:#000000;stroke-width:1px;stroke-linecap:butt;stroke-linejoin:miter;stroke-opacity:1" />
        <path
           inkscape:connector-curvature="0"
           style="opacity:1;vector-effect:none;fill:#ffd42a;fill-opacity:1;stroke:#000000;stroke-width:1px;stroke-linecap:butt;stroke-linejoin:miter;stroke-miterlimit:4;stroke-dasharray:none;stroke-dashoffset:0;stroke-opacity:1"
           d="m 166.52612,463.18571 -30.23478,-5.29888 -9.35096,3.74039 24.6242,5.29888 z"
           id="path2083-3" />
        <path
           inkscape:connector-curvature="0"
           id="path2099-7"
           d="m 117.52164,457.08698 66.02893,-2.95652 -79.33326,14.53622 z"
           style="opacity:1;vector-effect:none;fill:#ffd42a;fill-opacity:1;stroke:#000000;stroke-width:1px;stroke-linecap:butt;stroke-linejoin:miter;stroke-miterlimit:4;stroke-dasharray:none;stroke-dashoffset:0;stroke-opacity:1" />
        <path
           inkscape:connector-curvature="0"
           id="path2106-5"
           d="m 129.18262,463.63027 7.36941,-6.90734 39.66956,-1.77206 z"
           style="fill:#11be73;fill-opacity:1;stroke:none;stroke-width:1px;stroke-linecap:butt;stroke-linejoin:miter;stroke-opacity:1" />
        <path
           inkscape:connector-curvature="0"
           id="path2108-9"
           d="m 97.768863,463.60206 29.547247,6.0332 -14.07748,-8.19897 z"
           style="opacity:1;vector-effect:none;fill:#11be73;fill-opacity:1;stroke:#000000;stroke-width:1px;stroke-linecap:butt;stroke-linejoin:miter;stroke-miterlimit:4;stroke-dasharray:none;stroke-dashoffset:0;stroke-opacity:1" />
      </g>
    </g>
  </g>
</svg>
