<?xml version="1.0" encoding="UTF-8" standalone="no"?>
<svg
   xmlns:dc="http://purl.org/dc/elements/1.1/"
   xmlns:cc="http://creativecommons.org/ns#"
   xmlns:rdf="http://www.w3.org/1999/02/22-rdf-syntax-ns#"
   xmlns:svg="http://www.w3.org/2000/svg"
   xmlns="http://www.w3.org/2000/svg"
   xmlns:xlink="http://www.w3.org/1999/xlink"
   xmlns:sodipodi="http://sodipodi.sourceforge.net/DTD/sodipodi-0.dtd"
   xmlns:inkscape="http://www.inkscape.org/namespaces/inkscape"
   version="1.1"
   id="svg1444"
   width="225"
   height="480"
   viewBox="0 0 225 480"
   sodipodi:docname="logos.svg"
   inkscape:version="0.92.4 (5da689c313, 2019-01-14)">
  <sodipodi:namedview
     pagecolor="#ffffff"
     bordercolor="#666666"
     borderopacity="1"
     objecttolerance="10"
     gridtolerance="10"
     guidetolerance="10"
     inkscape:pageopacity="0"
     inkscape:pageshadow="2"
     inkscape:window-width="1920"
     inkscape:window-height="1020"
     id="namedview69"
     showgrid="false"
     inkscape:zoom="0.98333333"
     inkscape:cx="321.71217"
     inkscape:cy="304.50055"
     inkscape:window-x="0"
     inkscape:window-y="31"
     inkscape:window-maximized="1"
     inkscape:current-layer="svg1444" />
  <metadata
     id="metadata1450">
    <rdf:RDF>
      <cc:Work
         rdf:about="">
        <dc:format>image/svg+xml</dc:format>
        <dc:type
           rdf:resource="http://purl.org/dc/dcmitype/StillImage" />
        <dc:title />
      </cc:Work>
    </rdf:RDF>
  </metadata>
  <defs
     id="defs1448" />
  <g
     id="g3867"
     inkscape:export-xdpi="96"
     inkscape:export-ydpi="96">
    <image
       sodipodi:absref="/home/dummy/devel/qqmusic/art/r/a4/logo_s.orig.png"
       xlink:href="logo_s.orig.png"
       y="0"
       x="0"
       id="image1452"
       preserveAspectRatio="none"
       height="480"
       width="225" />
    <g
       id="g5271">
      <g
         id="g5233">
        <path
           style="fill:#ffffff;stroke:none;stroke-width:1px;stroke-linecap:butt;stroke-linejoin:miter;stroke-opacity:1"
           d="m 112.53279,110.75178 4.21998,28.83653 22.85822,-3.16499 11.25328,14.41827 9.49496,-3.86832 14.41826,7.38496 -12.30827,-21.09989 18.98991,-9.84662 -16.52826,-13.01161 -6.32997,-17.231581 6.32997,-36.573157 -12.30827,18.286579 -14.15738,-4.875309 -15.03081,-10.949615 -7.73663,7.033299 -9.49496,-0.703329 15.47326,20.044903 -9.49495,9.494954 9.84662,14.066596 z"
           id="path2079"
           inkscape:connector-curvature="0" />
        <path
           style="opacity:1;vector-effect:none;fill:#000000;fill-opacity:1;stroke:none;stroke-width:2.9596982;stroke-linecap:butt;stroke-linejoin:miter;stroke-miterlimit:4;stroke-dasharray:none;stroke-dashoffset:0;stroke-opacity:1"
           d="m 33.250462,41.026076 6.437064,21.884167 -21.375472,7.95343 37.223629,18.636308 21.443943,-4.470759 64.459054,32.273528 -20.90589,5.44903 22.87671,2.35985 14.21348,-14.29338 -21.59421,-19.019328 8.96106,20.406968 L 79.738425,79.531258 70.474091,59.672151 Z"
           id="rect126"
           inkscape:connector-curvature="0" />
        <path
           id="path2041"
           d="m 165.8207,53.798762 -13.1981,21.083189 -14.15738,-4.875309 -15.03081,-10.949615 -7.73663,7.033299 -9.49496,-0.703329 15.47326,20.044903 -9.49495,9.494954 9.84662,14.066596 -9.49496,1.75833 4.21998,28.83653 22.85822,-3.16499 11.25328,14.41827 9.49496,-3.86832 14.41826,7.38496 -12.30827,-21.09989 18.98991,-9.84662 -16.52826,-13.01161 -6.32997,-17.231581 7.98251,-43.691801"
           style="fill:none;stroke:#000000;stroke-width:1px;stroke-linecap:butt;stroke-linejoin:miter;stroke-opacity:1"
           inkscape:connector-curvature="0" />
        <path
           id="path2043"
           d="M 112.53279,110.75178 27.781533,195.15137"
           style="fill:none;stroke:#000000;stroke-width:1px;stroke-linecap:butt;stroke-linejoin:miter;stroke-opacity:1"
           inkscape:connector-curvature="0" />
        <path
           id="path2045"
           d="m 112.18113,94.926854 -8.0883,1.758325 -56.618059,-18.989908"
           style="fill:none;stroke:#000000;stroke-width:1px;stroke-linecap:butt;stroke-linejoin:miter;stroke-opacity:1"
           inkscape:connector-curvature="0" />
        <path
           id="path2047"
           d="M 71.38799,85.783565 88.619573,132.55501"
           style="fill:none;stroke:#000000;stroke-width:1px;stroke-linecap:butt;stroke-linejoin:miter;stroke-opacity:1"
           inkscape:connector-curvature="0" />
        <path
           id="path2049"
           d="m 160.05943,89.025973 47.07124,27.352447"
           style="fill:none;stroke:#000000;stroke-width:1px;stroke-linecap:butt;stroke-linejoin:miter;stroke-opacity:1"
           inkscape:connector-curvature="0" />
        <path
           id="path2051"
           d="m 181.45913,123.41172 30.24318,21.80323"
           style="fill:none;stroke:#000000;stroke-width:1px;stroke-linecap:butt;stroke-linejoin:miter;stroke-opacity:1"
           inkscape:connector-curvature="0" />
        <path
           id="path2053"
           d="m 174.77749,154.35823 31.64985,21.0999"
           style="fill:none;stroke:#000000;stroke-width:1px;stroke-linecap:butt;stroke-linejoin:miter;stroke-opacity:1"
           inkscape:connector-curvature="0" />
        <path
           id="path2055"
           d="m 160.05943,89.025973 c 6.13181,-3.052141 16.26517,-4.503663 27.02634,-5.704063"
           style="fill:none;stroke:#000000;stroke-width:1px;stroke-linecap:butt;stroke-linejoin:miter;stroke-opacity:1"
           inkscape:connector-curvature="0" />
        <path
           id="path2057"
           d="m 138.46522,70.006642 -1.31588,-10.59795 0.35166,-5.274975"
           style="fill:none;stroke:#000000;stroke-width:1px;stroke-linecap:butt;stroke-linejoin:miter;stroke-opacity:1"
           inkscape:connector-curvature="0" />
        <path
           id="path2059"
           d="m 121.32442,50.617068 2.10999,8.439959 -8.79163,-1.054995 -3.86831,-4.92331 -13.363272,-1.758324"
           style="fill:none;stroke:#000000;stroke-width:1px;stroke-linecap:butt;stroke-linejoin:miter;stroke-opacity:1"
           inkscape:connector-curvature="0" />
        <path
           id="path2061"
           d="m 106.20282,65.386997 -2.81332,-5.62664 -5.978302,-1.054995 -7.73663,-5.274975"
           style="fill:none;stroke:#000000;stroke-width:1px;stroke-linecap:butt;stroke-linejoin:miter;stroke-opacity:1"
           inkscape:connector-curvature="0" />
        <path
           id="path2063"
           d="m 88.619573,132.55501 17.934917,28.48486"
           style="fill:none;stroke:#000000;stroke-width:1px;stroke-linecap:butt;stroke-linejoin:miter;stroke-opacity:1"
           inkscape:connector-curvature="0" />
        <path
           id="path2065"
           d="m 116.75277,139.58831 -37.276486,80.53127 -2.461655,17.58325"
           style="fill:none;stroke:#000000;stroke-width:1px;stroke-linecap:butt;stroke-linejoin:miter;stroke-opacity:1"
           inkscape:connector-curvature="0" />
        <path
           id="path2067"
           d="m 141.15874,138.79548 -18.28658,36.22149"
           style="fill:none;stroke:#000000;stroke-width:1px;stroke-linecap:butt;stroke-linejoin:miter;stroke-opacity:1"
           inkscape:connector-curvature="0" />
        <path
           id="path2069"
           d="m 141.15874,138.79548 8.23149,22.82086"
           style="fill:none;stroke:#000000;stroke-width:1px;stroke-linecap:butt;stroke-linejoin:miter;stroke-opacity:1"
           inkscape:connector-curvature="0" />
        <path
           id="path2071"
           d="m 75.161021,147.80769 20.044904,-5.27498"
           style="fill:none;stroke:#000000;stroke-width:1px;stroke-linecap:butt;stroke-linejoin:miter;stroke-opacity:1"
           inkscape:connector-curvature="0" />
        <path
           style="opacity:1;vector-effect:none;fill:#ff0000;fill-opacity:1;stroke:none;stroke-width:2.91260195px;stroke-linecap:butt;stroke-linejoin:miter;stroke-miterlimit:4;stroke-dasharray:none;stroke-dashoffset:0;stroke-opacity:1"
           d="m 158.16448,111.09414 c -26.5998,11.27106 -38.50283,29.60018 -41.65857,44.02724 -3.156,14.42706 4.922,22.4721 17.31288,22.4721 12.39103,0 16.23043,-8.56586 19.16093,-16.68112 2.9305,-8.11517 -7.66437,-16.00478 -7.66437,-24.57084 0,-8.56626 14.20156,-25.47288 14.20156,-25.47288 z"
           id="path4679"
           inkscape:connector-curvature="0" />
        <path
           id="path2073"
           d="m 160.35923,146.97327 -2.95637,11.77506"
           style="fill:none;stroke:#000000;stroke-width:1px;stroke-linecap:butt;stroke-linejoin:miter;stroke-opacity:1"
           inkscape:connector-curvature="0" />
        <path
           id="path2075"
           d="m 158.88369,152.56372 2.78743,3.74561"
           style="fill:none;stroke:#000000;stroke-width:1px;stroke-linecap:butt;stroke-linejoin:miter;stroke-opacity:1"
           inkscape:connector-curvature="0" />
        <path
           id="path2077"
           d="M 71.38799,85.783565 106.20282,65.386997"
           style="fill:none;stroke:#000000;stroke-width:1px;stroke-linecap:butt;stroke-linejoin:miter;stroke-opacity:1"
           inkscape:connector-curvature="0" />
      </g>
      <g
         id="g5240">
        <path
           id="path2081"
           d="m 29.268048,457.00368 67.595253,-11.84659 20.905749,8.3623 -55.051804,11.84659 z"
           style="fill:#ffd42a;stroke:#000000;stroke-width:1px;stroke-linecap:butt;stroke-linejoin:miter;stroke-opacity:1"
           inkscape:connector-curvature="0" />
        <path
           style="opacity:1;vector-effect:none;fill:#ffd42a;fill-opacity:1;stroke:#000000;stroke-width:1px;stroke-linecap:butt;stroke-linejoin:miter;stroke-miterlimit:4;stroke-dasharray:none;stroke-dashoffset:0;stroke-opacity:1"
           d="m 166.52612,463.18571 -30.23478,-5.29888 -9.35096,3.74039 24.6242,5.29888 z"
           id="path2083"
           inkscape:connector-curvature="0" />
        <path
           id="path2099"
           d="m 117.52164,457.08698 66.02893,-2.95652 -79.33326,14.53622 z"
           style="opacity:1;vector-effect:none;fill:#ffd42a;fill-opacity:1;stroke:#000000;stroke-width:1px;stroke-linecap:butt;stroke-linejoin:miter;stroke-miterlimit:4;stroke-dasharray:none;stroke-dashoffset:0;stroke-opacity:1"
           inkscape:connector-curvature="0" />
        <path
           id="path2106"
           d="m 129.18262,463.63027 7.36941,-6.90734 39.66956,-1.77206 z"
           style="fill:#11be73;fill-opacity:1;stroke:none;stroke-width:1px;stroke-linecap:butt;stroke-linejoin:miter;stroke-opacity:1"
           inkscape:connector-curvature="0" />
        <path
           id="path2108"
           d="m 97.768863,463.60206 29.547247,6.0332 -14.07748,-8.19897 z"
           style="opacity:1;vector-effect:none;fill:#11be73;fill-opacity:1;stroke:#000000;stroke-width:1px;stroke-linecap:butt;stroke-linejoin:miter;stroke-miterlimit:4;stroke-dasharray:none;stroke-dashoffset:0;stroke-opacity:1"
           inkscape:connector-curvature="0" />
      </g>
    </g>
  </g>
  <g
     id="g3966"
     inkscape:export-xdpi="96"
     inkscape:export-ydpi="96">
    <image
       sodipodi:absref="/home/dummy/devel/qqmusic/art/r/a4/logo_s_white.orig.webp.png"
       xlink:href="logo_s_white.orig.webp.png"
       y="8.9259529"
       x="339.46204"
       id="image4839"
       preserveAspectRatio="none"
       height="480"
       width="225" />
    <g
       id="g4871"
       transform="matrix(3.125,0,0,3.1249999,-780.42191,-376.64935)">
      <g
         transform="matrix(0.72092515,0,0,0.72092515,369.62548,129.67001)"
         id="g1495">
        <path
           style="opacity:1;fill:#000000;fill-opacity:1;stroke:none;stroke-width:0.43545604px;stroke-linecap:butt;stroke-linejoin:miter;stroke-opacity:1"
           d="m 33.353764,40.680972 1.837615,12.557041 9.953752,-1.378214 4.900309,6.278521 4.134639,-1.684483 6.278518,3.215825 -5.359711,-9.188072 8.269271,-4.287771 -7.19733,-5.665984 -2.756424,-7.503596 2.756424,-15.926002 -5.359712,7.963001 -6.164916,-2.122982 -6.545257,-4.768076 -3.368964,3.062692 -4.134638,-0.306269 6.737926,8.728674 -4.134635,4.134635 4.287772,6.125385 z"
           id="path2079-3"
           inkscape:connector-curvature="0" />
        <path
           id="path2041-7"
           d="m 58.245537,13.387698 -7.434422,11.67354 -6.164916,-2.122982 -6.545257,-4.768076 -3.368964,3.062692 -4.134638,-0.306269 6.737926,8.728674 -4.134635,4.134635 4.287772,6.125385 -4.134639,0.765675 1.837615,12.557041 9.953752,-1.378214 4.900309,6.278521 4.134639,-1.684483 6.278518,3.215825 -5.359711,-9.188072 8.269271,-4.287771 -7.19733,-5.665984 -2.756424,-7.503596 2.756424,-15.926002"
           style="fill:none;stroke:#000000;stroke-width:0.43545604px;stroke-linecap:butt;stroke-linejoin:miter;stroke-opacity:1;opacity:0"
           inkscape:connector-curvature="0" />
        <path
           id="path2043-5"
           d="M 33.353764,40.680972 -3.5516832,77.433281"
           style="fill:none;stroke:#000000;stroke-width:0.43545604px;stroke-linecap:butt;stroke-linejoin:miter;stroke-opacity:1"
           inkscape:connector-curvature="0" />
        <path
           id="path2045-3"
           d="M 33.200631,33.789912 29.678532,34.555586 5.0238558,26.286315"
           style="fill:none;stroke:#000000;stroke-width:0.43545604px;stroke-linecap:butt;stroke-linejoin:miter;stroke-opacity:1"
           inkscape:connector-curvature="0" />
        <path
           id="path2047-5"
           d="M 15.437012,29.808412 22.940609,50.17532"
           style="fill:none;stroke:#000000;stroke-width:0.43545604px;stroke-linecap:butt;stroke-linejoin:miter;stroke-opacity:1"
           inkscape:connector-curvature="0" />
        <path
           id="path2049-6"
           d="M 54.049529,31.220338 74.546985,43.131126"
           style="fill:none;stroke:#000000;stroke-width:0.43545604px;stroke-linecap:butt;stroke-linejoin:miter;stroke-opacity:1"
           inkscape:connector-curvature="0" />
        <path
           id="path2051-2"
           d="m 63.368157,46.193819 13.169576,9.494347"
           style="fill:none;stroke:#000000;stroke-width:0.43545604px;stroke-linecap:butt;stroke-linejoin:miter;stroke-opacity:1"
           inkscape:connector-curvature="0" />
        <path
           id="path2053-9"
           d="m 60.458597,59.669662 13.782118,9.188079"
           style="fill:none;stroke:#000000;stroke-width:0.43545604px;stroke-linecap:butt;stroke-linejoin:miter;stroke-opacity:1"
           inkscape:connector-curvature="0" />
        <path
           id="path2055-1"
           d="m 54.049529,31.220338 c 2.670134,-1.329073 7.082766,-1.961147 11.768783,-2.483869"
           style="fill:none;stroke:#000000;stroke-width:0.43545604px;stroke-linecap:butt;stroke-linejoin:miter;stroke-opacity:1"
           inkscape:connector-curvature="0" />
        <path
           id="path2057-2"
           d="m 44.646199,22.938256 -0.573008,-4.614942 0.153132,-2.29702"
           style="fill:none;stroke:#000000;stroke-width:0.43545604px;stroke-linecap:butt;stroke-linejoin:miter;stroke-opacity:1"
           inkscape:connector-curvature="0" />
        <path
           id="path2059-7"
           d="m 37.182134,14.494948 0.918808,3.675232 -3.828371,-0.459404 -1.684479,-2.143885 -5.819117,-0.765673"
           style="fill:none;stroke:#000000;stroke-width:0.43545604px;stroke-linecap:butt;stroke-linejoin:miter;stroke-opacity:1"
           inkscape:connector-curvature="0" />
        <path
           id="path2061-0"
           d="m 30.59734,20.926603 -1.225077,-2.450154 -2.603288,-0.459404 -3.368962,-2.29702"
           style="fill:none;stroke:#000000;stroke-width:0.43545604px;stroke-linecap:butt;stroke-linejoin:miter;stroke-opacity:1"
           inkscape:connector-curvature="0" />
        <path
           id="path2063-9"
           d="m 22.940609,50.17532 7.809868,12.403903"
           style="fill:none;stroke:#000000;stroke-width:0.43545604px;stroke-linecap:butt;stroke-linejoin:miter;stroke-opacity:1"
           inkscape:connector-curvature="0" />
        <path
           id="path2065-3"
           d="M 35.191379,53.238013 18.959108,88.305839 17.887166,95.962571"
           style="fill:none;stroke:#000000;stroke-width:0.43545604px;stroke-linecap:butt;stroke-linejoin:miter;stroke-opacity:1"
           inkscape:connector-curvature="0" />
        <path
           id="path2067-6"
           d="M 45.819108,52.892771 37.856107,68.665635"
           style="fill:none;stroke:#000000;stroke-width:0.43545604px;stroke-linecap:butt;stroke-linejoin:miter;stroke-opacity:1"
           inkscape:connector-curvature="0" />
        <path
           id="path2069-0"
           d="M 45.819108,52.892771 49.40356,62.83025"
           style="fill:none;stroke:#000000;stroke-width:0.43545604px;stroke-linecap:butt;stroke-linejoin:miter;stroke-opacity:1"
           inkscape:connector-curvature="0" />
        <path
           id="path2071-6"
           d="m 17.080001,56.81719 8.728674,-2.297022"
           style="fill:none;stroke:#000000;stroke-width:0.43545604px;stroke-linecap:butt;stroke-linejoin:miter;stroke-opacity:1"
           inkscape:connector-curvature="0" />
        <path
           style="opacity:1;vector-effect:none;fill:#ff0000;fill-opacity:1;stroke:none;stroke-width:1.26831007px;stroke-linecap:butt;stroke-linejoin:miter;stroke-miterlimit:4;stroke-dasharray:none;stroke-dashoffset:0;stroke-opacity:1"
           d="M 53.224361,40.830055 C 41.641317,45.738106 36.45807,53.719632 35.083883,60.001981 c -1.3743,6.28235 2.143316,9.785611 7.539,9.785611 5.395749,0 7.067639,-3.730055 8.343743,-7.263894 1.276104,-3.5338 -3.337497,-6.969378 -3.337497,-10.699519 0,-3.73023 6.184156,-11.09232 6.184156,-11.09232 z"
           id="path4679-2"
           inkscape:connector-curvature="0" />
        <path
           id="path2073-6"
           d="m 54.180079,56.453837 -1.28737,5.127521"
           style="fill:none;stroke:#000000;stroke-width:0.43545604px;stroke-linecap:butt;stroke-linejoin:miter;stroke-opacity:1"
           inkscape:connector-curvature="0" />
        <path
           id="path2075-1"
           d="m 53.537546,58.888232 1.213803,1.631049"
           style="fill:none;stroke:#000000;stroke-width:0.43545604px;stroke-linecap:butt;stroke-linejoin:miter;stroke-opacity:1"
           inkscape:connector-curvature="0" />
        <path
           id="path2077-8"
           d="M 15.437012,29.808412 30.59734,20.926603"
           style="fill:none;stroke:#000000;stroke-width:0.43545604px;stroke-linecap:butt;stroke-linejoin:miter;stroke-opacity:1"
           inkscape:connector-curvature="0" />
        <path
           style="opacity:1;vector-effect:none;fill:#000000;fill-opacity:1;stroke:#ffffff;stroke-width:1.28881848;stroke-linecap:butt;stroke-linejoin:miter;stroke-miterlimit:4;stroke-dasharray:none;stroke-dashoffset:0;stroke-opacity:1"
           d="m -1.1702052,10.318493 2.803058,9.529593 -9.308078,3.463369 16.209254,8.115293 9.3378942,-1.946819 28.069087,14.053702 -9.103596,2.372814 9.961801,1.02761 6.189347,-6.224138 -9.40333,-8.282082 3.902148,8.886338 -28.414121,-14.228366 -4.03421,-8.647768 z"
           id="rect126-6"
           inkscape:connector-curvature="0" />
      </g>
      <g
         transform="matrix(0.43207748,0,0,0.43207748,349.06353,221.24698)"
         id="g1529">
        <path
           id="path2081-7"
           d="M 28.724609,111.8014 96.319863,99.954812 117.22561,108.31711 62.173808,120.1637 Z"
           style="fill:#ffd42a;stroke:#000000;stroke-width:1px;stroke-linecap:butt;stroke-linejoin:miter;stroke-opacity:1"
           inkscape:connector-curvature="0" />
        <path
           style="opacity:1;vector-effect:none;fill:#ffd42a;fill-opacity:1;stroke:#000000;stroke-width:1px;stroke-linecap:butt;stroke-linejoin:miter;stroke-miterlimit:4;stroke-dasharray:none;stroke-dashoffset:0;stroke-opacity:1"
           d="m 165.98268,117.98343 -30.23478,-5.29888 -9.35096,3.74039 24.6242,5.29888 z"
           id="path2083-9"
           inkscape:connector-curvature="0" />
        <path
           id="path2099-2"
           d="m 116.9782,111.8847 66.02893,-2.95652 -79.33326,14.53622 z"
           style="opacity:1;vector-effect:none;fill:#ffd42a;fill-opacity:1;stroke:#000000;stroke-width:1px;stroke-linecap:butt;stroke-linejoin:miter;stroke-miterlimit:4;stroke-dasharray:none;stroke-dashoffset:0;stroke-opacity:1"
           inkscape:connector-curvature="0" />
        <path
           id="path2106-0"
           d="m 128.63918,118.42799 7.36941,-6.90734 39.66956,-1.77206 z"
           style="fill:#11be73;fill-opacity:1;stroke:none;stroke-width:1px;stroke-linecap:butt;stroke-linejoin:miter;stroke-opacity:1"
           inkscape:connector-curvature="0" />
        <path
           id="path2108-2"
           d="m 97.225425,118.39978 29.547245,6.0332 -14.07748,-8.19897 z"
           style="opacity:1;vector-effect:none;fill:#11be73;fill-opacity:1;stroke:#000000;stroke-width:1px;stroke-linecap:butt;stroke-linejoin:miter;stroke-miterlimit:4;stroke-dasharray:none;stroke-dashoffset:0;stroke-opacity:1"
           inkscape:connector-curvature="0" />
      </g>
    </g>
  </g>
</svg>
